<svg xmlns="http://www.w3.org/2000/svg" width="256" height="256" viewBox="0 0 100 100"><rect width="100" height="100" rx="20" fill="#8e80f2"></rect><path fill="#fff" d="M19.35 81.82L18.95 77.86Q20.62 77.25 22.56 76.96Q24.49 76.67 26.29 76.46L26.29 76.46L26.29 23.46L19.22 22.09Q19.13 21.88 19.13 21.37Q19.13 20.86 19.13 20.56L19.13 20.56Q19.13 19.90 19.30 19.19Q19.48 18.49 19.66 18.18L19.66 18.18L42.11 18.18L42.51 21.88Q41.72 22.23 40.60 22.47Q39.48 22.71 38.29 22.91Q37.10 23.11 36.03 23.24Q34.95 23.37 34.20 23.46L34.20 23.46L34.20 46.92L65.49 46.92L65.49 23.46L58.06 22.09Q57.98 21.88 57.98 21.37Q57.98 20.86 57.98 20.56L57.98 20.56Q57.98 19.90 58.15 19.19Q58.33 18.49 58.50 18.18L58.50 18.18L80.21 18.18L80.65 21.96Q78.94 22.62 77.05 22.93Q75.16 23.24 73.36 23.46L73.36 23.46L73.36 76.46L80.96 77.86Q81.05 78.08 81.05 78.54Q81.05 79.00 81.05 79.31L81.05 79.31Q81.05 79.93 80.87 80.72Q80.70 81.51 80.56 81.82L80.56 81.82L57.49 81.82L57.05 77.86Q57.89 77.55 58.99 77.36Q60.09 77.16 61.23 76.98Q62.37 76.81 63.47 76.70Q64.57 76.59 65.49 76.46L65.49 76.46L65.49 52.11L34.20 52.11L34.20 76.46L42.81 77.86Q42.90 78.08 42.90 78.54Q42.90 79.00 42.90 79.31L42.90 79.31Q42.90 79.93 42.73 80.72Q42.55 81.51 42.42 81.82L42.42 81.82L19.35 81.82Z"></path></svg>